<svg xmlns="http://www.w3.org/2000/svg" viewBox="0 0 120 40" role="img" aria-label="Airtel Money">
  <rect width="120" height="40" rx="6" fill="#ED1C24"/>
  <path fill="#fff" d="M18 28c-5.2 0-9.2-3.8-9.2-9.1S12.8 9.8 18 9.8c3.1 0 5.4 1.2 6.8 3.1l-2.8 2.1c-.9-1.2-2.2-1.9-3.9-1.9-2.8 0-4.8 2.2-4.8 5.5s2 5.5 4.8 5.5c1.8 0 3.1-.8 4-2.1l2.7 2.1c-1.5 2-3.9 3.1-6.8 3.1z"/>
  <path fill="#fff" d="M28.5 10.2h3.4v17.6h-3.4V10.2zm8.2 0h3.3l7.2 12.1V10.2h3.3v17.6h-3.3L36 15.7v12.1h-3.3V10.2zm18.8 0h6.1c4.5 0 7.4 2.7 7.4 6.9 0 4.1-2.9 6.9-7.4 6.9h-6.1V10.2zm6 14.5c2.5 0 4.1-1.5 4.1-4.1 0-2.6-1.6-4.1-4.1-4.1h-2.6v8.2H63.5zm16.2-14.5h3.4l8.4 17.6h-3.8l-1.5-3.3h-7.2l-1.5 3.3h-3.8l8.4-17.6zm4.4 11.2-2.4-5.2-2.4 5.2h4.8z"/>
  <text x="60" y="34" text-anchor="middle" fill="#fff" font-family="Arial,Helvetica,sans-serif" font-size="7" font-weight="700">money</text>
</svg>
